<?xml version="1.0" encoding="utf-8"?>
<!-- Generator: Adobe Illustrator 15.0.0, SVG Export Plug-In . SVG Version: 6.00 Build 0)  -->
<!DOCTYPE svg PUBLIC "-//W3C//DTD SVG 1.1//EN" "http://www.w3.org/Graphics/SVG/1.1/DTD/svg11.dtd">
<svg version="1.1" id="Calque_1" xmlns="http://www.w3.org/2000/svg" xmlns:xlink="http://www.w3.org/1999/xlink" x="0px" y="0px"
	 width="24px" height="24px" viewBox="0 0 24 24" enable-background="new 0 0 24 24" xml:space="preserve">
<path fill="none" d="M0,0h24v24H0V0z"/>
<path opacity="0.75" fill="#006292" enable-background="new    " d="M13,3c-4.97,0-9,4.03-9,9H1l3.89,3.891l0.07,0.139L9,12H6
	c0-3.87,3.13-7,7-7s7,3.13,7,7s-3.13,7-7,7c-1.93,0-3.68-0.79-4.94-2.061l-1.42,1.42C8.27,19.99,10.51,21,13,21c4.971,0,9-4.029,9-9
	C22,7.03,17.971,3,13,3z M12,8v5l4.279,2.54L17,14.33l-3.5-2.08V8H12z"/>
</svg>
